<?xml version="1.0" encoding="utf-8"?>
<!-- Generator: Adobe Illustrator 16.0.0, SVG Export Plug-In . SVG Version: 6.00 Build 0)  -->
<!DOCTYPE svg PUBLIC "-//W3C//DTD SVG 1.1//EN" "http://www.w3.org/Graphics/SVG/1.1/DTD/svg11.dtd">
<svg version="1.1" id="Layer_1" xmlns="http://www.w3.org/2000/svg" xmlns:xlink="http://www.w3.org/1999/xlink" x="0px" y="0px"
	 width="256px" height="256px" viewBox="0 0 256 256" enable-background="new 0 0 256 256" xml:space="preserve">
<g>
	<g>
		<path fill="none" stroke="#FFFFFF" stroke-width="10" stroke-linecap="round" stroke-miterlimit="10" d="M91.005,82.92
			c-6.696-8.364-15.135-13.367-24.459-13.367c-21.348,0-38.692,26.561-38.692,59.318c0,32.736,17.345,59.254,38.692,59.254
			c9.279,0,17.763-4.981,24.439-13.354"/>
		<path fill="none" stroke="#FFFFFF" stroke-width="10" stroke-linecap="round" stroke-miterlimit="10" d="M45.951,131.679
			c0,19.986,9.648,36.267,21.521,36.267c5.002,0,9.729-2.836,13.59-8.215"/>
		<path fill="none" stroke="#FFFFFF" stroke-width="10" stroke-linecap="round" stroke-miterlimit="10" d="M65.429,206.624
			c-29.967,0-54.307-34.886-54.307-77.752c0-42.885,24.34-77.753,54.307-77.753"/>
		<path fill="none" stroke="#FFFFFF" stroke-width="10" stroke-linecap="round" stroke-miterlimit="10" d="M164.158,174.592
			c6.631,8.491,15.184,13.533,24.576,13.533c21.383,0,38.688-26.518,38.688-59.254c0-32.758-17.305-59.318-38.688-59.318
			c-9.293,0-17.791,5.003-24.461,13.367"/>
		<path fill="none" stroke="#FFFFFF" stroke-width="10" stroke-linecap="round" stroke-miterlimit="10" d="M190.395,50.216
			c29.953,0,54.354,34.868,54.354,77.753c0,42.863-24.4,77.755-54.354,77.755"/>
		<path fill="none" stroke="#FFFFFF" stroke-width="10" stroke-linecap="round" stroke-miterlimit="10" d="M210.324,124.999
			c0-19.794-9.973-35.841-22.15-35.841c-5.162,0-9.982,2.762-13.943,8.059"/>

			<line fill="none" stroke="#FFFFFF" stroke-width="10" stroke-linecap="round" stroke-miterlimit="10" x1="164.273" y1="82.92" x2="91.005" y2="174.772"/>

			<line fill="none" stroke="#FFFFFF" stroke-width="10" stroke-linecap="round" stroke-miterlimit="10" x1="132.363" y1="94.876" x2="78.084" y2="162.872"/>

			<line fill="none" stroke="#FFFFFF" stroke-width="10" stroke-linecap="round" stroke-miterlimit="10" x1="119.932" y1="165.702" x2="174.23" y2="97.653"/>

			<line fill="none" stroke="#FFFFFF" stroke-width="10" stroke-linecap="round" stroke-miterlimit="10" x1="105.227" y1="100.74" x2="91.005" y2="82.92"/>
	</g>

		<line fill="none" stroke="#FFFFFF" stroke-width="10" stroke-linecap="round" stroke-miterlimit="10" x1="164.273" y1="174.594" x2="150.02" y2="156.809"/>
</g>
</svg>
